<?xml version="1.0" encoding="utf-8"?>
<!-- Generator: Adobe Illustrator 22.1.0, SVG Export Plug-In . SVG Version: 6.00 Build 0)  -->
<svg version="1.1"
	 id="svg8" inkscape:export-filename="/Users/atk420t/Desktop/fizzee-p.png" inkscape:export-xdpi="97.987495" inkscape:export-ydpi="97.987495" inkscape:version="0.92.2 5c3e80d, 2017-08-06" sodipodi:docname="fizzee-p.svg" xmlns:cc="http://creativecommons.org/ns#" xmlns:dc="http://purl.org/dc/elements/1.1/" xmlns:inkscape="http://www.inkscape.org/namespaces/inkscape" xmlns:rdf="http://www.w3.org/1999/02/22-rdf-syntax-ns#" xmlns:sodipodi="http://sodipodi.sourceforge.net/DTD/sodipodi-0.dtd" xmlns:svg="http://www.w3.org/2000/svg"
	 xmlns="http://www.w3.org/2000/svg" xmlns:xlink="http://www.w3.org/1999/xlink" x="0px" y="0px" viewBox="0 0 18.9 62.4"
	 style="enable-background:new 0 0 18.9 62.4;" xml:space="preserve">
<style type="text/css">
	.st0{fill:#FFDD2B;}
</style>
<sodipodi:namedview  bordercolor="#666666" borderopacity="1.0" id="base" inkscape:current-layer="layer1" inkscape:cx="607.77118" inkscape:cy="200.0637" inkscape:document-units="mm" inkscape:pageopacity="0.0" inkscape:pageshadow="2" inkscape:window-height="778" inkscape:window-maximized="1" inkscape:window-width="1234" inkscape:window-x="46" inkscape:window-y="0" inkscape:zoom="0.24748737" pagecolor="#ffffff" showgrid="false">
	</sodipodi:namedview>
<g id="layer1" transform="translate(0,-197)" inkscape:groupmode="layer" inkscape:label="繝ｬ繧､繝､繝ｼ 1">
	<path id="path5278" inkscape:connector-curvature="0" class="st0" d="M11.6,259.1c-1.1-0.6-2.1-1.9-3.7-4.8
		c-0.4-0.7-0.8-1.4-0.8-1.5c-0.1-0.1-0.7-1.1-1.4-2.3c-0.7-1.2-1.9-3.2-2.6-4.4c-1.7-2.9-2.1-3.7-2.6-5.7c-0.5-1.8-0.5-3.1-0.2-5
		c0.4-2.3,1.2-4,3.9-8.6c0.2-0.3,0.8-1.4,1.3-2.5c1.3-2.4,1.5-2.8,2.3-4.1c0.3-0.6,0.8-1.4,0.9-1.8l0.3-0.8l-0.5-0.9
		c-0.3-0.5-1.1-2-1.9-3.3c-2.7-4.3-3.3-5.9-3.6-8.7c-0.4-4.2,1.7-8.1,4.2-7.7c0.5,0.1,1.1,0.3,1.4,0.5c0.6,0.5,1.9,2.1,2.8,3.9
		c0.4,0.7,0.8,1.4,0.9,1.5c0.1,0.1,0.6,1,1.1,2c0.6,1,1.2,2.1,1.4,2.3c1.8,2.7,3.4,5.8,3.9,7.6c0.3,1.2,0.4,4.1,0,5.6
		c-0.3,1.4-0.9,2.6-3.5,7.2c-2.6,4.7-4.8,8.7-5.1,9.4c-0.2,0.5-0.2,0.7,0.1,1.1c0.2,0.3,0.5,0.8,0.7,1.1c0.4,0.7,1.6,2.8,2.4,4
		c1.8,2.8,2.2,3.7,2.7,5c1,2.9,1,5.4,0.1,8.1c-0.7,2-1.6,2.9-2.9,3C12.6,259.4,12,259.3,11.6,259.1L11.6,259.1z"/>
</g>
</svg>
