<svg id="レイヤー_1" data-name="レイヤー 1" xmlns="http://www.w3.org/2000/svg" viewBox="0 0 591.17 272.66"><defs><style>.cls-1{fill:#231815;}.cls-2{fill:#040000;}.cls-3{fill:none;stroke:#040000;stroke-miterlimit:10;stroke-width:10px;}</style></defs><title>yusuke</title><path class="cls-1" d="M74.86,170.41a15.32,15.32,0,0,1-4.12,9.12A15,15,0,0,1,63,184a12.57,12.57,0,0,1-8.34-1.11q-4-2-5.78-7.79a38.87,38.87,0,0,1-1.45-8.23,86.29,86.29,0,0,1-.22-8.78q.11-4.33.33-8.34t.22-6.68q0-6.44-.11-12.67c-.07-4.15-.31-26.08-.31-30.38A200.06,200.06,0,0,1,27.39,77.87a178.73,178.73,0,0,1-16.12-25A85.79,85.79,0,0,1,7,44.06a27.74,27.74,0,0,1-2.22-9.45,9.72,9.72,0,0,1,.89-7.68,13.93,13.93,0,0,1,5.44-5.33,14.58,14.58,0,0,1,7.57-1.78,12.17,12.17,0,0,1,7.45,2.78,17.15,17.15,0,0,1,4,4.67,35.92,35.92,0,0,1,2.67,5.67c.74,2,1.45,4,2.11,6.12a29.31,29.31,0,0,0,2.56,5.78c3.62,6.2,5.63,11.44,10.34,15.68,3,2.7,6.75,6.08,12.09,6.27,5.63.19,9.81-3.27,13.13-6,4.6-3.8,7.44-8.39,11.59-15,.74-1.19,1.85-3,3.34-5.45s3-5,4.67-7.67a85.48,85.48,0,0,1,5.11-7.46,17.49,17.49,0,0,1,4.67-4.55,12.09,12.09,0,0,1,7.23-2,13.27,13.27,0,0,1,6.68,2.23,14.26,14.26,0,0,1,4.78,5.45,12.83,12.83,0,0,1,1.33,7.45Q122,38,118.58,44a132.71,132.71,0,0,1-8,12.23Q106,62.41,101.34,68T94,76.87c-1.48,1.78-2.93,3.52-4.33,5.22s-2.86,3.38-4.34,5q-2.89,3.33-5.56,6.67l-5.34,6.67q.06,21.47.21,43.06Q74.73,157,74.86,170.41Z" transform="translate(-4.42 -18.57)"/><path class="cls-1" d="M133.67,158.63c3.76,4.65,10.36,4.8,12.05,4.84s8.66.19,13.22-4.79c1.27-1.37,2.44-3.25,4.11-11.8,1.44-7.43,2.48-11.31,2.8-15.19.53-6.42.7-10.25.94-17.09s.41-13,.53-18.55q0-2.47.18-5.22c.11-1.82.17-3.56.17-5.21a9.73,9.73,0,0,1,3.27-5.75c1.59-1.23,9.47-2.79,11.48-2.79a9.35,9.35,0,0,1,5.39,1.77,8.74,8.74,0,0,1,3.44,5.3q-.17,10.78-.62,22.89T189,130.63q-1.25,11.49-3.27,21.74a75,75,0,0,1-5.39,17.32,22.75,22.75,0,0,1-5.92,7.15,39.2,39.2,0,0,1-8.4,5.22,45,45,0,0,1-9.72,3.18,47.86,47.86,0,0,1-9.72,1.06,45.71,45.71,0,0,1-11-1.33,41.24,41.24,0,0,1-10.08-3.88,30.16,30.16,0,0,1-8.13-6.45,26.21,26.21,0,0,1-5.21-9,89,89,0,0,1-5-23.24q-1.06-12.63-1.06-25.71,0-4.24.09-8.49t.09-8.3c0-2.48,0-4.92.08-7.34s.09-4.8.09-7.15a9.65,9.65,0,0,1,3.24-5.57A8.38,8.38,0,0,1,115,78c1.87,0,8.2,1.44,9.89,2.56a8.35,8.35,0,0,1,3.41,5.21v6.63c0,2.41-.06,4.92-.18,7.51q-.17,4.42-.26,9.81t-.09,10.16q0,7.25.27,14.4a79.21,79.21,0,0,0,.78,9.94,33.35,33.35,0,0,0,2.39,9.27C132.14,156,132.61,157.32,133.67,158.63Z" transform="translate(-4.42 -18.57)"/><path class="cls-1" d="M63.49,50.67" transform="translate(-4.42 -18.57)"/><path class="cls-1" d="M246.64,122.82a25.26,25.26,0,0,0-6,2.71,19.27,19.27,0,0,0-6,5.2c-1.71,2.32-2.43,5.94-2.61,8.81a10.39,10.39,0,0,0,2.6,6.93c3.13,3.35,8,2.84,10.24,2.6,5.9-.62,8.47-2.1,15.65-4.49,3.13-1,8.79-3.25,14.38-2,4.43,1,6.56,2.16,10,6.24a47.16,47.16,0,0,1,8.8,14.92A51.55,51.55,0,0,1,296,180.48c-.14,5.42-1.78,10.09-3.52,14.73a29.8,29.8,0,0,1-7.25,11.17,41.82,41.82,0,0,1-3.41,3h0a127,127,0,0,1-15.53,5.48c-17.19,4.72-19.5,6.67-25.32,5.37a17.78,17.78,0,0,1-7.87-3.87c-1.49-1.28-4.14-3.58-4.8-7.4-.17-1-.64-4.51,1.39-6.89A8,8,0,0,1,233,200a19.94,19.94,0,0,1,4.67-1c1.64-.29,3.27-.71,4.9-1.06a200.94,200.94,0,0,0,21.47-6.45l1-.34c2.51-.91,8.26-3.29,11.34-7.34s2.64-6.84,2.51-10.64a8.51,8.51,0,0,0-.63-3.14,9.35,9.35,0,0,0-1.66-3,10.55,10.55,0,0,0-2.75-2.23,8.33,8.33,0,0,0-1.18-.65,7.91,7.91,0,0,0-3.78-.54,22.42,22.42,0,0,0-5,.84c-1.24.3-2.16.57-2.4.65-3,1-6.67,1.89-8.94,2.7-3.72,1.34-6.82,2.56-10.72,2.42a21.61,21.61,0,0,1-10.63-2.77,27.51,27.51,0,0,1-9.7-8.33,31.57,31.57,0,0,1-5.26-12.35,47.35,47.35,0,0,1-.13-19.54,34.18,34.18,0,0,1,7-13.4c1.28-1.51,3.43-3.79,17.59-11.26,0,0,12.91-6.82,24.25-8.92a11.3,11.3,0,0,1,6.53.46,12.92,12.92,0,0,1,4.55,3.42,15.64,15.64,0,0,1,2.73,4.29,14.14,14.14,0,0,1,1.25,3.2c.39,1.56,1,4-.13,6a6.45,6.45,0,0,1-3.18,2.54,21.51,21.51,0,0,1-4.46,1.39,45.41,45.41,0,0,0-7.23,2.48" transform="translate(-4.42 -18.57)"/><path class="cls-1" d="M341.09,156.58c3.76,4.65,10.37,4.8,12.05,4.84s8.66.19,13.23-4.79c1.26-1.37,2.43-3.25,4.1-11.8,1.45-7.43,2.49-11.31,2.81-15.19.53-6.42.69-10.25.93-17.09s.41-13,.53-18.55q0-2.48.18-5.22c.11-1.82.18-3.56.18-5.21a9.63,9.63,0,0,1,3.27-5.75C380,76.59,387.84,75,389.84,75a9.35,9.35,0,0,1,5.39,1.77,8.75,8.75,0,0,1,3.45,5.3q-.18,10.79-.62,22.89t-1.68,23.59q-1.25,11.49-3.27,21.74a74.48,74.48,0,0,1-5.39,17.32,22.89,22.89,0,0,1-5.92,7.16,39.31,39.31,0,0,1-8.4,5.21,45,45,0,0,1-9.72,3.18,47.71,47.71,0,0,1-9.72,1.06,45.71,45.71,0,0,1-11-1.33A41.24,41.24,0,0,1,332.84,179a30.16,30.16,0,0,1-8.13-6.45,26.53,26.53,0,0,1-5.21-9,89,89,0,0,1-4.95-23.24q-1.05-12.63-1.06-25.71,0-4.25.09-8.49t.09-8.3c0-2.48,0-4.92.09-7.34s.09-4.8.09-7.15a9.58,9.58,0,0,1,3.23-5.57,8.41,8.41,0,0,1,5.34-1.86c1.86,0,8.19,1.44,9.88,2.56a8.35,8.35,0,0,1,3.41,5.21v6.63c0,2.41-.06,4.92-.17,7.51q-.18,4.43-.27,9.81t-.09,10.16q0,7.24.27,14.4a79.21,79.21,0,0,0,.78,9.94,33.7,33.7,0,0,0,2.39,9.27C339.56,154,340,155.27,341.09,156.58Z" transform="translate(-4.42 -18.57)"/><path class="cls-1" d="M467.67,104.65c-2.84,3-10,10.7-10.28,18.5-.19,6,4.14,10.56,12.8,19.68A168,168,0,0,0,488,159.12c1.25.88,9.9,7.27,12.1,13.83a9.28,9.28,0,0,1,.37,6,8.26,8.26,0,0,1-2.25,3.47,17.42,17.42,0,0,1-9.68,3.89,13.4,13.4,0,0,1-4.78-.89,13.21,13.21,0,0,1-4.56-3.11l-16.58-18.39q-3.35-3.9-6.59-7.62c-2.19-2.51-4.86-5.57-6.42-7.29a118.37,118.37,0,0,0-13.91-12.9v39.53q-.21,5.33-3.3,8a10.73,10.73,0,0,1-7.26,2.67,11.64,11.64,0,0,1-7-2.45,10.37,10.37,0,0,1-4-7.33V50a12.35,12.35,0,0,1,4-7,10.19,10.19,0,0,1,6.61-2.33,11.29,11.29,0,0,1,6.71,2.11,11.86,11.86,0,0,1,4.29,6.56q.06,28.76.11,57.51a25.56,25.56,0,0,0,9.83-4.13c1.16-.82,2.13-1.65,6.52-6.24s7.6-8.1,8-8.56q4.11-4.68,9.23-10.24a15.71,15.71,0,0,1,4.78-2.78,12.45,12.45,0,0,1,4.56-.77,10.26,10.26,0,0,1,4.85,1.27A7.4,7.4,0,0,1,487.19,79a6.79,6.79,0,0,1,.18,4.42,12,12,0,0,1-2.88,4.91,56.76,56.76,0,0,1-5.37,5.53c-3.38,3.13-4.17,3.66-6.74,6.09C472.38,99.93,469.87,102.3,467.67,104.65Z" transform="translate(-4.42 -18.57)"/><path class="cls-1" d="M579.35,155.38a15.75,15.75,0,0,1,6.56-1.11,11,11,0,0,1,5.11,1.56,9.93,9.93,0,0,1,3.34,3.45,9,9,0,0,1,1.22,4.56,8.58,8.58,0,0,1-1.55,4.78,15,15,0,0,1-4.9,4.34A116.92,116.92,0,0,1,569,182.41a63.6,63.6,0,0,1-21.68,3.89,47.94,47.94,0,0,1-13.12-1.89,41.64,41.64,0,0,1-12.46-5.89,46.42,46.42,0,0,1-14.57-18.13,54.08,54.08,0,0,1-5.22-23,56.05,56.05,0,0,1,4.55-22.24,38.89,38.89,0,0,1,14.57-17.35,74.26,74.26,0,0,1,17.35-8.9,57.22,57.22,0,0,1,19.35-3.33,49.27,49.27,0,0,1,10.46,1.11,27.68,27.68,0,0,1,9.12,3.89,31.72,31.72,0,0,1,12.23,15.24,26.17,26.17,0,0,1,1.78,9.34,26.78,26.78,0,0,1-.67,6,16.81,16.81,0,0,1-2.45,5.56,30.69,30.69,0,0,1-9.12,9.23,73.42,73.42,0,0,1-12.67,6.79,113.77,113.77,0,0,1-14.24,4.89q-7.34,2-13.79,3.56c-4.6,1.19-7.52,1.93-8.78,2.22a15.3,15.3,0,0,1-2.34.45,24.87,24.87,0,0,0,8.9,10.23q5.77,3.78,14.23,3.11a40.06,40.06,0,0,0,14.79-4.11A148.61,148.61,0,0,0,579.35,155.38Zm-40.93-44.7a37,37,0,0,0-11,8.87,13.67,13.67,0,0,0-2.66,3.57,11.27,11.27,0,0,0-.72,6.76c.27,1.3.86,3.07,2.3,3.75s2.56-.07,6.2-1.3c2.6-.89,5.29-1.53,7.93-2.3,4-1.15,3.61-1.05,6.68-1.89s6-1.78,9-2.89c4-1.47,6-2.26,8.46-3.89a27.73,27.73,0,0,0,4.63-3.92c.15-.72,1.25-6.46-2.3-9.87-2.19-2.11-5-2.45-8-2.45A35.07,35.07,0,0,0,548,107,83.84,83.84,0,0,0,538.42,110.68Z" transform="translate(-4.42 -18.57)"/><path class="cls-2" d="M73.48,205.25c21,14.35,89.78,57.44,188.25,54.73,96.53-2.66,161.83-47.68,182.38-63.12a44.34,44.34,0,0,0-12.24-2.31,46.64,46.64,0,0,0-25.09,6.23,283.49,283.49,0,0,1-26.29,13.54c-12.24,5.53-55.68,24.09-116.18,26.3A320.9,320.9,0,0,1,152.48,225,306.13,306.13,0,0,1,99,201.44a33.86,33.86,0,0,0-13.39-.63A33.25,33.25,0,0,0,73.48,205.25Z" transform="translate(-4.42 -18.57)"/><path class="cls-3" d="M332.69,247s20.86,49.61,51.28,37.3,4.24-58.71,4.24-58.71Z" transform="translate(-4.42 -18.57)"/><polygon class="cls-2" points="350.99 219.59 377.02 266.16 385.64 263.71 359.32 216.89 350.99 219.59"/></svg>